<svg data-v-423bf9ae="" xmlns="http://www.w3.org/2000/svg" viewBox="0 0 767 101" class="iconLeft"><!----><!----><!----><g data-v-423bf9ae="" id="fdc06e78-6ef6-4471-b726-21c648fbad3f" fill="white" transform="matrix(4.477611749096269,0,0,4.477611749096269,117.72554801477725,6.929933247308085)"><path d="M4.33 13.66Q3.22 13.66 2.19 13.32Q1.16 12.98 0.57 12.43L0.57 12.43L1.09 11.34Q1.65 11.84 2.53 12.16Q3.40 12.47 4.33 12.47L4.33 12.47Q5.54 12.47 6.15 12.06Q6.75 11.65 6.75 10.96L6.75 10.96Q6.75 10.46 6.42 10.14Q6.09 9.83 5.61 9.66Q5.12 9.49 4.24 9.28L4.24 9.28Q3.14 9.02 2.46 8.75Q1.78 8.48 1.29 7.93Q0.81 7.38 0.81 6.44L0.81 6.44Q0.81 5.66 1.23 5.03Q1.64 4.40 2.48 4.02Q3.32 3.64 4.56 3.64L4.56 3.64Q5.43 3.64 6.27 3.86Q7.11 4.09 7.71 4.51L7.71 4.51L7.25 5.63Q6.64 5.24 5.94 5.03Q5.24 4.83 4.56 4.83L4.56 4.83Q3.37 4.83 2.78 5.26Q2.18 5.70 2.18 6.38L2.18 6.38Q2.18 6.89 2.52 7.20Q2.86 7.52 3.35 7.69Q3.85 7.87 4.70 8.06L4.70 8.06Q5.81 8.33 6.48 8.60Q7.15 8.86 7.64 9.41Q8.12 9.95 8.12 10.88L8.12 10.88Q8.12 11.65 7.70 12.29Q7.28 12.92 6.43 13.29Q5.57 13.66 4.33 13.66L4.33 13.66ZM18.24 13.55L16.72 13.55L14.60 10.54Q14.21 10.57 13.99 10.57L13.99 10.57L11.56 10.57L11.56 13.55L10.16 13.55L10.16 3.75L13.99 3.75Q15.89 3.75 16.98 4.66Q18.07 5.57 18.07 7.17L18.07 7.17Q18.07 8.30 17.51 9.10Q16.95 9.90 15.92 10.26L15.92 10.26L18.24 13.55ZM13.94 9.38Q15.27 9.38 15.97 8.81Q16.67 8.23 16.67 7.17L16.67 7.17Q16.67 6.10 15.97 5.54Q15.27 4.97 13.94 4.97L13.94 4.97L11.56 4.97L11.56 9.38L13.94 9.38ZM24.40 13.66Q22.44 13.66 21.35 12.54Q20.26 11.42 20.26 9.32L20.26 9.32L20.26 3.75L21.66 3.75L21.66 9.27Q21.66 12.42 24.42 12.42L24.42 12.42Q25.76 12.42 26.47 11.64Q27.19 10.86 27.19 9.27L27.19 9.27L27.19 3.75L28.55 3.75L28.55 9.32Q28.55 11.44 27.45 12.55Q26.36 13.66 24.40 13.66L24.40 13.66ZM41.97 11.79L41.97 8.60L43.32 8.60L43.32 12.42Q42.59 13.02 41.62 13.34Q40.66 13.66 39.61 13.66L39.61 13.66Q38.12 13.66 36.93 13.01Q35.74 12.36 35.06 11.22Q34.38 10.08 34.38 8.65L34.38 8.65Q34.38 7.22 35.06 6.08Q35.74 4.93 36.94 4.28Q38.14 3.64 39.63 3.64L39.63 3.64Q40.81 3.64 41.77 4.02Q42.73 4.41 43.40 5.15L43.40 5.15L42.53 6.02Q41.36 4.89 39.69 4.89L39.69 4.89Q38.57 4.89 37.68 5.37Q36.79 5.85 36.29 6.71Q35.78 7.57 35.78 8.65L35.78 8.65Q35.78 9.72 36.29 10.58Q36.79 11.44 37.68 11.93Q38.57 12.42 39.68 12.42L39.68 12.42Q40.99 12.42 41.97 11.79L41.97 11.79ZM45.79 13.55L45.79 3.16L47.14 3.16L47.14 13.55L45.79 13.55ZM52.88 13.64Q51.77 13.64 50.89 13.15Q50.01 12.66 49.51 11.79Q49.01 10.93 49.01 9.84L49.01 9.84Q49.01 8.75 49.51 7.89Q50.01 7.03 50.89 6.54Q51.77 6.06 52.88 6.06L52.88 6.06Q53.98 6.06 54.86 6.54Q55.73 7.03 56.23 7.89Q56.73 8.75 56.73 9.84L56.73 9.84Q56.73 10.93 56.23 11.79Q55.73 12.66 54.86 13.15Q53.98 13.64 52.88 13.64L52.88 13.64ZM52.88 12.46Q53.59 12.46 54.16 12.13Q54.73 11.80 55.05 11.21Q55.37 10.61 55.37 9.84L55.37 9.84Q55.37 9.07 55.05 8.48Q54.73 7.88 54.16 7.56Q53.59 7.24 52.88 7.24L52.88 7.24Q52.16 7.24 51.60 7.56Q51.03 7.88 50.70 8.48Q50.37 9.07 50.37 9.84L50.37 9.84Q50.37 10.61 50.70 11.21Q51.03 11.80 51.60 12.13Q52.16 12.46 52.88 12.46L52.88 12.46ZM62.52 6.06Q63.60 6.06 64.46 6.54Q65.31 7.01 65.79 7.87Q66.28 8.72 66.28 9.84L66.28 9.84Q66.28 10.96 65.79 11.82Q65.31 12.68 64.46 13.16Q63.60 13.64 62.52 13.64L62.52 13.64Q61.70 13.64 61.01 13.31Q60.33 12.99 59.88 12.38L59.88 12.38L59.88 13.55L58.59 13.55L58.59 3.16L59.93 3.16L59.93 7.25Q60.38 6.66 61.05 6.36Q61.73 6.06 62.52 6.06L62.52 6.06ZM62.41 12.46Q63.13 12.46 63.69 12.13Q64.26 11.80 64.59 11.21Q64.92 10.61 64.92 9.84L64.92 9.84Q64.92 9.07 64.59 8.48Q64.26 7.88 63.69 7.56Q63.13 7.24 62.41 7.24L62.41 7.24Q61.71 7.24 61.14 7.56Q60.56 7.88 60.24 8.48Q59.92 9.07 59.92 9.84L59.92 9.84Q59.92 10.61 60.24 11.21Q60.56 11.80 61.14 12.13Q61.71 12.46 62.41 12.46L62.41 12.46ZM70.77 6.06Q72.31 6.06 73.13 6.82Q73.95 7.57 73.95 9.07L73.95 9.07L73.95 13.55L72.67 13.55L72.67 12.57Q72.34 13.09 71.72 13.36Q71.09 13.64 70.24 13.64L70.24 13.64Q68.99 13.64 68.24 13.03Q67.49 12.43 67.49 11.45L67.49 11.45Q67.49 10.47 68.21 9.88Q68.92 9.28 70.48 9.28L70.48 9.28L72.60 9.28L72.60 9.02Q72.60 8.15 72.10 7.69Q71.60 7.22 70.62 7.22L70.62 7.22Q69.96 7.22 69.33 7.44Q68.70 7.66 68.26 8.02L68.26 8.02L67.70 7.01Q68.28 6.55 69.08 6.31Q69.87 6.06 70.77 6.06L70.77 6.06ZM70.46 12.60Q71.23 12.60 71.79 12.26Q72.35 11.91 72.60 11.28L72.60 11.28L72.60 10.25L70.53 10.25Q68.82 10.25 68.82 11.40L68.82 11.40Q68.82 11.96 69.26 12.28Q69.69 12.60 70.46 12.60L70.46 12.60ZM76.44 13.55L76.44 3.16L77.78 3.16L77.78 13.55L76.44 13.55ZM84.31 13.55L84.31 3.75L85.71 3.75L85.71 12.33L91.01 12.33L91.01 13.55L84.31 13.55ZM95.51 13.64Q94.40 13.64 93.52 13.15Q92.64 12.66 92.14 11.79Q91.64 10.93 91.64 9.84L91.64 9.84Q91.64 8.75 92.14 7.89Q92.64 7.03 93.52 6.54Q94.40 6.06 95.51 6.06L95.51 6.06Q96.61 6.06 97.49 6.54Q98.36 7.03 98.86 7.89Q99.36 8.75 99.36 9.84L99.36 9.84Q99.36 10.93 98.86 11.79Q98.36 12.66 97.49 13.15Q96.61 13.64 95.51 13.64L95.51 13.64ZM95.51 12.46Q96.22 12.46 96.79 12.13Q97.36 11.80 97.68 11.21Q98.00 10.61 98.00 9.84L98.00 9.84Q98.00 9.07 97.68 8.48Q97.36 7.88 96.79 7.56Q96.22 7.24 95.51 7.24L95.51 7.24Q94.79 7.24 94.23 7.56Q93.66 7.88 93.33 8.48Q93.00 9.07 93.00 9.84L93.00 9.84Q93.00 10.61 93.33 11.21Q93.66 11.80 94.23 12.13Q94.79 12.46 95.51 12.46L95.51 12.46ZM107.04 6.13L108.32 6.13L108.32 12.54Q108.32 14.49 107.35 15.42Q106.39 16.35 104.47 16.35L104.47 16.35Q103.42 16.35 102.47 16.06Q101.51 15.78 100.93 15.25L100.93 15.25L101.57 14.21Q102.09 14.66 102.85 14.92Q103.61 15.18 104.43 15.18L104.43 15.18Q105.73 15.18 106.35 14.56Q106.97 13.94 106.97 12.68L106.97 12.68L106.97 12.10Q106.50 12.67 105.81 12.96Q105.11 13.24 104.30 13.24L104.30 13.24Q103.24 13.24 102.38 12.79Q101.51 12.33 101.02 11.52Q100.53 10.70 100.53 9.65L100.53 9.65Q100.53 8.60 101.02 7.78Q101.51 6.96 102.38 6.51Q103.24 6.06 104.30 6.06L104.30 6.06Q105.14 6.06 105.86 6.37Q106.58 6.68 107.04 7.28L107.04 7.28L107.04 6.13ZM104.45 12.07Q105.18 12.07 105.76 11.76Q106.34 11.45 106.67 10.90Q107.00 10.35 107.00 9.65L107.00 9.65Q107.00 8.57 106.29 7.90Q105.57 7.24 104.45 7.24L104.45 7.24Q103.32 7.24 102.61 7.90Q101.89 8.57 101.89 9.65L101.89 9.65Q101.89 10.35 102.22 10.90Q102.55 11.45 103.13 11.76Q103.71 12.07 104.45 12.07L104.45 12.07ZM110.88 13.55L110.88 6.13L112.22 6.13L112.22 13.55L110.88 13.55ZM111.55 4.70Q111.16 4.70 110.90 4.45Q110.64 4.20 110.64 3.84L110.64 3.84Q110.64 3.47 110.90 3.21Q111.16 2.95 111.55 2.95L111.55 2.95Q111.94 2.95 112.20 3.20Q112.46 3.44 112.46 3.81L112.46 3.81Q112.46 4.19 112.20 4.45Q111.94 4.70 111.55 4.70L111.55 4.70ZM116.91 13.64Q116.00 13.64 115.16 13.39Q114.32 13.15 113.85 12.77L113.85 12.77L114.41 11.70Q114.90 12.05 115.60 12.26Q116.30 12.47 117.01 12.47L117.01 12.47Q118.78 12.47 118.78 11.47L118.78 11.47Q118.78 11.13 118.54 10.93Q118.30 10.74 117.94 10.65Q117.59 10.56 116.93 10.44L116.93 10.44Q116.03 10.30 115.47 10.12Q114.90 9.94 114.49 9.51Q114.09 9.07 114.09 8.29L114.09 8.29Q114.09 7.28 114.93 6.67Q115.77 6.06 117.18 6.06L117.18 6.06Q117.92 6.06 118.66 6.24Q119.41 6.43 119.88 6.73L119.88 6.73L119.31 7.80Q118.40 7.21 117.17 7.21L117.17 7.21Q116.31 7.21 115.86 7.49Q115.42 7.77 115.42 8.23L115.42 8.23Q115.42 8.60 115.67 8.81Q115.92 9.02 116.29 9.11Q116.66 9.21 117.33 9.34L117.33 9.34Q118.23 9.49 118.78 9.67Q119.34 9.84 119.73 10.26Q120.12 10.68 120.12 11.44L120.12 11.44Q120.12 12.45 119.26 13.04Q118.40 13.64 116.91 13.64L116.91 13.64ZM125.55 12.15L125.97 13.12Q125.68 13.37 125.24 13.50Q124.81 13.64 124.35 13.64L124.35 13.64Q123.23 13.64 122.61 13.03Q122.00 12.43 122.00 11.31L122.00 11.31L122.00 7.24L120.74 7.24L120.74 6.13L122.00 6.13L122.00 4.51L123.34 4.51L123.34 6.13L125.47 6.13L125.47 7.24L123.34 7.24L123.34 11.26Q123.34 11.86 123.64 12.18Q123.94 12.50 124.50 12.50L124.50 12.50Q125.12 12.50 125.55 12.15L125.55 12.15ZM127.60 13.55L127.60 6.13L128.94 6.13L128.94 13.55L127.60 13.55ZM128.27 4.70Q127.88 4.70 127.62 4.45Q127.36 4.20 127.36 3.84L127.36 3.84Q127.36 3.47 127.62 3.21Q127.88 2.95 128.27 2.95L128.27 2.95Q128.66 2.95 128.92 3.20Q129.18 3.44 129.18 3.81L129.18 3.81Q129.18 4.19 128.92 4.45Q128.66 4.70 128.27 4.70L128.27 4.70ZM134.74 13.64Q133.60 13.64 132.71 13.15Q131.82 12.66 131.32 11.79Q130.82 10.93 130.82 9.84L130.82 9.84Q130.82 8.75 131.32 7.89Q131.82 7.03 132.71 6.54Q133.60 6.06 134.74 6.06L134.74 6.06Q135.74 6.06 136.53 6.47Q137.33 6.87 137.76 7.64L137.76 7.64L136.74 8.30Q136.39 7.77 135.87 7.50Q135.35 7.24 134.72 7.24L134.72 7.24Q133.99 7.24 133.41 7.56Q132.83 7.88 132.50 8.48Q132.17 9.07 132.17 9.84L132.17 9.84Q132.17 10.63 132.50 11.22Q132.83 11.82 133.41 12.14Q133.99 12.46 134.72 12.46L134.72 12.46Q135.35 12.46 135.87 12.19Q136.39 11.93 136.74 11.40L136.74 11.40L137.76 12.04Q137.33 12.81 136.53 13.22Q135.74 13.64 134.74 13.64L134.74 13.64ZM141.62 13.64Q140.71 13.64 139.87 13.39Q139.03 13.15 138.56 12.77L138.56 12.77L139.12 11.70Q139.61 12.05 140.31 12.26Q141.01 12.47 141.72 12.47L141.72 12.47Q143.49 12.47 143.49 11.47L143.49 11.47Q143.49 11.13 143.25 10.93Q143.01 10.74 142.65 10.65Q142.30 10.56 141.64 10.44L141.64 10.44Q140.74 10.30 140.18 10.12Q139.61 9.94 139.20 9.51Q138.80 9.07 138.80 8.29L138.80 8.29Q138.80 7.28 139.64 6.67Q140.48 6.06 141.89 6.06L141.89 6.06Q142.63 6.06 143.37 6.24Q144.12 6.43 144.59 6.73L144.59 6.73L144.02 7.80Q143.11 7.21 141.88 7.21L141.88 7.21Q141.02 7.21 140.57 7.49Q140.13 7.77 140.13 8.23L140.13 8.23Q140.13 8.60 140.38 8.81Q140.63 9.02 141.00 9.11Q141.37 9.21 142.04 9.34L142.04 9.34Q142.94 9.49 143.49 9.67Q144.05 9.84 144.44 10.26Q144.83 10.68 144.83 11.44L144.83 11.44Q144.83 12.45 143.97 13.04Q143.11 13.64 141.62 13.64L141.62 13.64Z"></path></g><!----><g data-v-423bf9ae="" id="c6aa440a-a365-427a-b506-c89f01e56edd" transform="matrix(1.0555555555555556,0,0,1.0555555555555556,-2.2777777777777786,-2.277777671813965)" stroke="none" fill="white"><path d="M17 67.22L9 44.46l-6.5 2.37v24.62h11.69A8.61 8.61 0 0117 67.22zM20.4 82.21L11.57 97.5h16.05l-5.29-15a8.16 8.16 0 01-1.93-.29zM14.19 76.25H2.5V97.5H6l10.25-17.68a8.7 8.7 0 01-2.06-3.57zM2.5 26.14v15.59l4.86-1.79-4.86-13.8zM66.42 2.5l-8 13.85a13 13 0 013 3.72L97.5 6.79V2.5zM71.54 76.25H30.73a8.61 8.61 0 01-3.77 5L32.7 97.5h13l25.91-21a.854.854 0 00-.07-.25zM50 13.23a13.06 13.06 0 014.27.72L60.89 2.5H39.11L45.73 14a13.06 13.06 0 014.27-.77zM37.38 28.9a12.53 12.53 0 01-.3-2.75 12.87 12.87 0 014.5-9.8l-8-13.85H2.5v9.2l9.36 26.59zM62.92 26.15a12.85 12.85 0 01-4.5 9.79l18.2 31.52a5.62 5.62 0 01.92-.07 6.47 6.47 0 013.75 1.2L97.5 55.42V11.9L62.83 24.65a12.33 12.33 0 01.09 1.5zM77.54 80.31a6.37 6.37 0 01-2.47-.49L53.31 97.5h35.12l-10-17.26a5.62 5.62 0 01-.89.07zM97.5 71.45V61.6l-12.13 9.85H97.5zM39.25 33.32l-25.8 9.49 7.92 22.5a7.88 7.88 0 011.09-.07 8.24 8.24 0 012.06.25l17.06-29.55a12.65 12.65 0 01-2.33-2.62zM71.54 71.45a6.56 6.56 0 01.93-1.6l-18.2-31.51a12.85 12.85 0 01-8.54 0L28.67 67.89a8.6 8.6 0 012.06 3.56zM82.61 77.85L94 97.5h3.5V76.25h-14a6.25 6.25 0 01-.89 1.6z"></path></g><!----></svg>