<svg data-v-423bf9ae="" xmlns="http://www.w3.org/2000/svg" viewBox="0 0 1041.5504815633894 163" class="iconAbove"><!----><!----><!----><g data-v-423bf9ae="" id="dd0c12c4-c0d1-4a24-84e1-114b313fd313" fill="#142B59" transform="matrix(5.888125304749934,0,0,5.888125304749934,-1.7075448445888242,82.03827568252294)"><path d="M4.42 13.75Q3.23 13.75 2.11 13.45Q0.99 13.16 0.29 12.67L0.29 12.67L1.20 10.63Q1.86 11.06 2.73 11.33Q3.60 11.59 4.44 11.59L4.44 11.59Q6.03 11.59 6.03 10.79L6.03 10.79Q6.03 10.37 5.58 10.17Q5.12 9.97 4.12 9.74L4.12 9.74Q3.01 9.51 2.27 9.23Q1.53 8.96 0.99 8.36Q0.46 7.76 0.46 6.73L0.46 6.73Q0.46 5.84 0.95 5.12Q1.44 4.40 2.42 3.98Q3.39 3.56 4.80 3.56L4.80 3.56Q5.77 3.56 6.71 3.77Q7.64 3.99 8.36 4.41L8.36 4.41L7.50 6.47Q6.10 5.71 4.79 5.71L4.79 5.71Q3.96 5.71 3.58 5.96Q3.21 6.20 3.21 6.59L3.21 6.59Q3.21 6.99 3.65 7.18Q4.10 7.38 5.10 7.59L5.10 7.59Q6.22 7.83 6.95 8.10Q7.69 8.37 8.22 8.97Q8.76 9.56 8.76 10.58L8.76 10.58Q8.76 11.47 8.27 12.18Q7.78 12.89 6.80 13.32Q5.82 13.75 4.42 13.75L4.42 13.75ZM16.10 13.55L14.32 10.95L12.81 10.95L12.81 13.55L10.04 13.55L10.04 3.75L14.52 3.75Q15.85 3.75 16.83 4.19Q17.81 4.63 18.34 5.45Q18.87 6.27 18.87 7.38L18.87 7.38Q18.87 8.44 18.38 9.23Q17.88 10.02 16.95 10.47L16.95 10.47L19.07 13.55L16.10 13.55ZM16.07 7.38Q16.07 6.69 15.64 6.31Q15.20 5.94 14.35 5.94L14.35 5.94L12.81 5.94L12.81 8.81L14.35 8.81Q15.20 8.81 15.64 8.43Q16.07 8.06 16.07 7.38L16.07 7.38ZM24.92 13.75Q22.74 13.75 21.52 12.56Q20.31 11.37 20.31 9.18L20.31 9.18L20.31 3.75L23.09 3.75L23.09 9.10Q23.09 11.45 24.95 11.45L24.95 11.45Q26.80 11.45 26.80 9.10L26.80 9.10L26.80 3.75L29.53 3.75L29.53 9.18Q29.53 11.37 28.31 12.56Q27.10 13.75 24.92 13.75L24.92 13.75ZM42.04 11.13L42.04 8.44L44.49 8.44L44.49 12.50Q43.65 13.10 42.56 13.43Q41.47 13.75 40.38 13.75L40.38 13.75Q38.84 13.75 37.60 13.10Q36.37 12.45 35.67 11.28Q34.97 10.12 34.97 8.65L34.97 8.65Q34.97 7.18 35.67 6.02Q36.37 4.86 37.62 4.21Q38.86 3.56 40.43 3.56L40.43 3.56Q41.80 3.56 42.90 4.02Q43.99 4.48 44.72 5.35L44.72 5.35L42.95 6.94Q41.96 5.85 40.57 5.85L40.57 5.85Q39.31 5.85 38.54 6.61Q37.77 7.38 37.77 8.65L37.77 8.65Q37.77 9.46 38.12 10.10Q38.47 10.74 39.10 11.09Q39.73 11.45 40.54 11.45L40.54 11.45Q41.34 11.45 42.04 11.13L42.04 11.13ZM46.26 13.55L46.26 3.75L49.03 3.75L49.03 11.35L53.70 11.35L53.70 13.55L46.26 13.55ZM59.58 13.75Q58.03 13.75 56.79 13.09Q55.55 12.43 54.84 11.27Q54.14 10.11 54.14 8.65L54.14 8.65Q54.14 7.20 54.84 6.03Q55.55 4.87 56.79 4.21Q58.03 3.56 59.58 3.56L59.58 3.56Q61.14 3.56 62.38 4.21Q63.62 4.87 64.32 6.03Q65.03 7.20 65.03 8.65L65.03 8.65Q65.03 10.11 64.32 11.27Q63.62 12.43 62.38 13.09Q61.14 13.75 59.58 13.75L59.58 13.75ZM59.58 11.45Q60.33 11.45 60.93 11.10Q61.53 10.75 61.88 10.11Q62.23 9.48 62.23 8.65L62.23 8.65Q62.23 7.83 61.88 7.19Q61.53 6.55 60.93 6.20Q60.33 5.85 59.58 5.85L59.58 5.85Q58.84 5.85 58.24 6.20Q57.64 6.55 57.29 7.19Q56.94 7.83 56.94 8.65L56.94 8.65Q56.94 9.48 57.29 10.11Q57.64 10.75 58.24 11.10Q58.84 11.45 59.58 11.45L59.58 11.45ZM74.02 8.44Q74.86 8.74 75.33 9.36Q75.81 9.98 75.81 10.86L75.81 10.86Q75.81 12.15 74.77 12.85Q73.74 13.55 71.78 13.55L71.78 13.55L66.49 13.55L66.49 3.75L71.50 3.75Q73.37 3.75 74.35 4.45Q75.33 5.14 75.33 6.31L75.33 6.31Q75.33 7.01 74.99 7.57Q74.65 8.12 74.02 8.44L74.02 8.44ZM71.13 5.75L69.23 5.75L69.23 7.64L71.13 7.64Q72.53 7.64 72.53 6.69L72.53 6.69Q72.53 5.75 71.13 5.75L71.13 5.75ZM71.55 11.55Q73.01 11.55 73.01 10.56L73.01 10.56Q73.01 9.56 71.55 9.56L71.55 9.56L69.23 9.56L69.23 11.55L71.55 11.55ZM84.59 13.55L83.82 11.65L79.67 11.65L78.90 13.55L76.08 13.55L80.40 3.75L83.13 3.75L87.47 13.55L84.59 13.55ZM80.49 9.60L83.01 9.60L81.75 6.47L80.49 9.60ZM88.26 13.55L88.26 3.75L91.03 3.75L91.03 11.35L95.70 11.35L95.70 13.55L88.26 13.55ZM100.87 13.55L100.87 3.75L103.64 3.75L103.64 11.35L108.32 11.35L108.32 13.55L100.87 13.55ZM114.20 13.75Q112.64 13.75 111.41 13.09Q110.17 12.43 109.46 11.27Q108.75 10.11 108.75 8.65L108.75 8.65Q108.75 7.20 109.46 6.03Q110.17 4.87 111.41 4.21Q112.64 3.56 114.20 3.56L114.20 3.56Q115.75 3.56 116.99 4.21Q118.23 4.87 118.94 6.03Q119.64 7.20 119.64 8.65L119.64 8.65Q119.64 10.11 118.94 11.27Q118.23 12.43 116.99 13.09Q115.75 13.75 114.20 13.75L114.20 13.75ZM114.20 11.45Q114.94 11.45 115.54 11.10Q116.14 10.75 116.49 10.11Q116.84 9.48 116.84 8.65L116.84 8.65Q116.84 7.83 116.49 7.19Q116.14 6.55 115.54 6.20Q114.94 5.85 114.20 5.85L114.20 5.85Q113.46 5.85 112.85 6.20Q112.25 6.55 111.90 7.19Q111.55 7.83 111.55 8.65L111.55 8.65Q111.55 9.48 111.90 10.11Q112.25 10.75 112.85 11.10Q113.46 11.45 114.20 11.45L114.20 11.45ZM127.67 11.13L127.67 8.44L130.12 8.44L130.12 12.50Q129.28 13.10 128.18 13.43Q127.09 13.75 126 13.75L126 13.75Q124.46 13.75 123.23 13.10Q122.00 12.45 121.30 11.28Q120.60 10.12 120.60 8.65L120.60 8.65Q120.60 7.18 121.30 6.02Q122.00 4.86 123.24 4.21Q124.49 3.56 126.06 3.56L126.06 3.56Q127.43 3.56 128.52 4.02Q129.61 4.48 130.34 5.35L130.34 5.35L128.58 6.94Q127.58 5.85 126.20 5.85L126.20 5.85Q124.94 5.85 124.17 6.61Q123.40 7.38 123.40 8.65L123.40 8.65Q123.40 9.46 123.75 10.10Q124.10 10.74 124.73 11.09Q125.36 11.45 126.17 11.45L126.17 11.45Q126.97 11.45 127.67 11.13L127.67 11.13ZM131.88 13.55L131.88 3.75L134.65 3.75L134.65 13.55L131.88 13.55ZM140.07 13.75Q138.88 13.75 137.76 13.45Q136.64 13.16 135.94 12.67L135.94 12.67L136.85 10.63Q137.51 11.06 138.38 11.33Q139.24 11.59 140.08 11.59L140.08 11.59Q141.68 11.59 141.68 10.79L141.68 10.79Q141.68 10.37 141.23 10.17Q140.77 9.97 139.76 9.74L139.76 9.74Q138.66 9.51 137.91 9.23Q137.17 8.96 136.64 8.36Q136.11 7.76 136.11 6.73L136.11 6.73Q136.11 5.84 136.60 5.12Q137.09 4.40 138.06 3.98Q139.03 3.56 140.45 3.56L140.45 3.56Q141.41 3.56 142.35 3.77Q143.29 3.99 144.00 4.41L144.00 4.41L143.15 6.47Q141.75 5.71 140.43 5.71L140.43 5.71Q139.61 5.71 139.23 5.96Q138.85 6.20 138.85 6.59L138.85 6.59Q138.85 6.99 139.30 7.18Q139.75 7.38 140.74 7.59L140.74 7.59Q141.86 7.83 142.60 8.10Q143.33 8.37 143.87 8.97Q144.41 9.56 144.41 10.58L144.41 10.58Q144.41 11.47 143.92 12.18Q143.43 12.89 142.45 13.32Q141.47 13.75 140.07 13.75L140.07 13.75ZM147.63 13.55L147.63 5.95L144.62 5.95L144.62 3.75L153.40 3.75L153.40 5.95L150.40 5.95L150.40 13.55L147.63 13.55ZM154.43 13.55L154.43 3.75L157.21 3.75L157.21 13.55L154.43 13.55ZM164.07 13.75Q162.53 13.75 161.30 13.10Q160.08 12.45 159.38 11.28Q158.68 10.12 158.68 8.65L158.68 8.65Q158.68 7.18 159.38 6.02Q160.08 4.86 161.30 4.21Q162.53 3.56 164.07 3.56L164.07 3.56Q165.41 3.56 166.49 4.03Q167.57 4.51 168.28 5.40L168.28 5.40L166.52 7.00Q165.56 5.85 164.21 5.85L164.21 5.85Q163.41 5.85 162.79 6.20Q162.16 6.55 161.82 7.19Q161.48 7.83 161.48 8.65L161.48 8.65Q161.48 9.48 161.82 10.11Q162.16 10.75 162.79 11.10Q163.41 11.45 164.21 11.45L164.21 11.45Q165.56 11.45 166.52 10.30L166.52 10.30L168.28 11.90Q167.57 12.80 166.49 13.27Q165.41 13.75 164.07 13.75L164.07 13.75ZM172.84 13.75Q171.65 13.75 170.53 13.45Q169.41 13.16 168.71 12.67L168.71 12.67L169.62 10.63Q170.28 11.06 171.15 11.33Q172.02 11.59 172.86 11.59L172.86 11.59Q174.45 11.59 174.45 10.79L174.45 10.79Q174.45 10.37 174.00 10.17Q173.54 9.97 172.54 9.74L172.54 9.74Q171.43 9.51 170.69 9.23Q169.95 8.96 169.41 8.36Q168.88 7.76 168.88 6.73L168.88 6.73Q168.88 5.84 169.37 5.12Q169.86 4.40 170.84 3.98Q171.81 3.56 173.22 3.56L173.22 3.56Q174.19 3.56 175.13 3.77Q176.06 3.99 176.78 4.41L176.78 4.41L175.92 6.47Q174.52 5.71 173.21 5.71L173.21 5.71Q172.38 5.71 172.00 5.96Q171.63 6.20 171.63 6.59L171.63 6.59Q171.63 6.99 172.07 7.18Q172.52 7.38 173.52 7.59L173.52 7.59Q174.64 7.83 175.37 8.10Q176.11 8.37 176.65 8.97Q177.18 9.56 177.18 10.58L177.18 10.58Q177.18 11.47 176.69 12.18Q176.20 12.89 175.22 13.32Q174.24 13.75 172.84 13.75L172.84 13.75Z"></path></g><defs data-v-423bf9ae=""><linearGradient data-v-423bf9ae="" gradientTransform="rotate(25)" id="0b7989d7-64c6-4652-afb9-0155abb77abb" x1="0%" y1="0%" x2="100%" y2="0%"><stop data-v-423bf9ae="" offset="0%" style="stop-color: rgb(242, 188, 27); stop-opacity: 1;"></stop><stop data-v-423bf9ae="" offset="100%" style="stop-color: rgb(242, 145, 191); stop-opacity: 1;"></stop></linearGradient></defs><g data-v-423bf9ae="" id="87dcb4c1-795f-4f7f-b75d-d42c766021f0" transform="matrix(1.4050922396706815,0,0,1.4050922396706815,449.79670466728226,-25.44205473312283)" stroke="none" fill="url(#0b7989d7-64c6-4652-afb9-0155abb77abb)"><path d="M90.95 32.554L67.544 19.041a4.999 4.999 0 00-4.999 0L52.27 24.974l8.627 4.98 2.407-1.39a3.48 3.48 0 013.481 0l16.298 9.41a3.481 3.481 0 011.74 3.015l-.001 18.818a3.482 3.482 0 01-1.739 3.015L66.785 72.23a3.47 3.47 0 01-3.481 0l-16.297-9.409a3.481 3.481 0 01-1.74-3.015V40.988c0-1.244.664-2.393 1.74-3.015l2.407-1.39-8.626-4.981-1.648.951a4.999 4.999 0 00-2.5 4.33V63.91c0 1.786.953 3.437 2.5 4.329l23.406 13.514a4.992 4.992 0 004.999 0L90.95 68.24a4.997 4.997 0 002.499-4.329V36.884a5 5 0 00-2.499-4.33z"></path><path d="M62.545 32.554L39.138 19.041a4.999 4.999 0 00-4.999 0L10.733 32.554a5 5 0 00-2.5 4.33v27.027c0 1.786.953 3.437 2.5 4.329L34.14 81.754c.773.447 1.636.67 2.5.67s1.727-.223 2.5-.67l10.275-5.932-8.627-4.98-2.407 1.389a3.471 3.471 0 01-3.481 0l-16.297-9.409a3.481 3.481 0 01-1.74-3.015V40.988c0-1.244.663-2.393 1.74-3.015l16.297-9.41a3.48 3.48 0 013.481 0l16.297 9.41a3.482 3.482 0 011.741 3.015v18.818a3.482 3.482 0 01-1.741 3.015l-2.407 1.39 8.627 4.98 1.648-.951a4.997 4.997 0 002.499-4.329l.001-27.027a5.003 5.003 0 00-2.501-4.33z"></path></g><!----></svg>